<mxfile host="app.diagrams.net" modified="2024-06-30T15:29:34.254Z" agent="Mozilla/5.0 (X11; Linux x86_64) AppleWebKit/537.36 (KHTML, like Gecko) Chrome/126.0.0.0 Safari/537.36" etag="ZrOkgBfZYPHCGKdqYNcc" version="24.6.4" type="device">
  <diagram name="Page-1" id="4rUBV0RC9NsNbcWP0Cig">
    <mxGraphModel dx="3240" dy="1303" grid="1" gridSize="10" guides="1" tooltips="1" connect="1" arrows="1" fold="1" page="1" pageScale="1" pageWidth="850" pageHeight="1100" math="0" shadow="0">
      <root>
        <mxCell id="0" />
        <mxCell id="1" parent="0" />
        <mxCell id="bwvaxVh_Ehk-p6oxeLNN-11" style="edgeStyle=orthogonalEdgeStyle;rounded=0;orthogonalLoop=1;jettySize=auto;html=1;exitX=1;exitY=0.5;exitDx=0;exitDy=0;entryX=0;entryY=0.5;entryDx=0;entryDy=0;jumpStyle=arc;" edge="1" parent="1" source="bwvaxVh_Ehk-p6oxeLNN-1" target="bwvaxVh_Ehk-p6oxeLNN-7">
          <mxGeometry relative="1" as="geometry" />
        </mxCell>
        <mxCell id="bwvaxVh_Ehk-p6oxeLNN-17" style="edgeStyle=orthogonalEdgeStyle;rounded=0;orthogonalLoop=1;jettySize=auto;html=1;exitX=1;exitY=0.25;exitDx=0;exitDy=0;entryX=0;entryY=0.5;entryDx=0;entryDy=0;jumpStyle=arc;" edge="1" parent="1" source="bwvaxVh_Ehk-p6oxeLNN-1" target="bwvaxVh_Ehk-p6oxeLNN-2">
          <mxGeometry relative="1" as="geometry" />
        </mxCell>
        <mxCell id="bwvaxVh_Ehk-p6oxeLNN-35" style="edgeStyle=orthogonalEdgeStyle;rounded=0;orthogonalLoop=1;jettySize=auto;html=1;exitX=0.75;exitY=1;exitDx=0;exitDy=0;entryX=0;entryY=0.5;entryDx=0;entryDy=0;" edge="1" parent="1" source="bwvaxVh_Ehk-p6oxeLNN-1" target="bwvaxVh_Ehk-p6oxeLNN-29">
          <mxGeometry relative="1" as="geometry" />
        </mxCell>
        <mxCell id="bwvaxVh_Ehk-p6oxeLNN-50" style="edgeStyle=orthogonalEdgeStyle;rounded=0;orthogonalLoop=1;jettySize=auto;html=1;exitX=0.5;exitY=1;exitDx=0;exitDy=0;entryX=0;entryY=0.5;entryDx=0;entryDy=0;jumpStyle=arc;" edge="1" parent="1" source="bwvaxVh_Ehk-p6oxeLNN-1" target="bwvaxVh_Ehk-p6oxeLNN-46">
          <mxGeometry relative="1" as="geometry" />
        </mxCell>
        <mxCell id="bwvaxVh_Ehk-p6oxeLNN-52" style="edgeStyle=orthogonalEdgeStyle;rounded=0;orthogonalLoop=1;jettySize=auto;html=1;exitX=0.5;exitY=1;exitDx=0;exitDy=0;entryX=0;entryY=0.5;entryDx=0;entryDy=0;jumpStyle=arc;" edge="1" parent="1" source="bwvaxVh_Ehk-p6oxeLNN-1" target="bwvaxVh_Ehk-p6oxeLNN-51">
          <mxGeometry relative="1" as="geometry" />
        </mxCell>
        <mxCell id="bwvaxVh_Ehk-p6oxeLNN-54" style="edgeStyle=orthogonalEdgeStyle;rounded=0;orthogonalLoop=1;jettySize=auto;html=1;exitX=0.75;exitY=1;exitDx=0;exitDy=0;entryX=0;entryY=0.25;entryDx=0;entryDy=0;jumpStyle=arc;" edge="1" parent="1" source="bwvaxVh_Ehk-p6oxeLNN-1" target="bwvaxVh_Ehk-p6oxeLNN-39">
          <mxGeometry relative="1" as="geometry" />
        </mxCell>
        <mxCell id="bwvaxVh_Ehk-p6oxeLNN-68" style="edgeStyle=orthogonalEdgeStyle;rounded=0;orthogonalLoop=1;jettySize=auto;html=1;exitX=0.25;exitY=1;exitDx=0;exitDy=0;entryX=0;entryY=0.5;entryDx=0;entryDy=0;" edge="1" parent="1" source="bwvaxVh_Ehk-p6oxeLNN-1" target="bwvaxVh_Ehk-p6oxeLNN-63">
          <mxGeometry relative="1" as="geometry" />
        </mxCell>
        <mxCell id="bwvaxVh_Ehk-p6oxeLNN-89" style="edgeStyle=orthogonalEdgeStyle;rounded=0;orthogonalLoop=1;jettySize=auto;html=1;exitX=0.5;exitY=1;exitDx=0;exitDy=0;entryX=0;entryY=0.5;entryDx=0;entryDy=0;" edge="1" parent="1" source="bwvaxVh_Ehk-p6oxeLNN-1" target="bwvaxVh_Ehk-p6oxeLNN-82">
          <mxGeometry relative="1" as="geometry" />
        </mxCell>
        <mxCell id="bwvaxVh_Ehk-p6oxeLNN-90" style="edgeStyle=orthogonalEdgeStyle;rounded=0;orthogonalLoop=1;jettySize=auto;html=1;exitX=0.5;exitY=1;exitDx=0;exitDy=0;entryX=0;entryY=0.5;entryDx=0;entryDy=0;" edge="1" parent="1" source="bwvaxVh_Ehk-p6oxeLNN-1" target="bwvaxVh_Ehk-p6oxeLNN-84">
          <mxGeometry relative="1" as="geometry" />
        </mxCell>
        <mxCell id="bwvaxVh_Ehk-p6oxeLNN-114" style="edgeStyle=orthogonalEdgeStyle;rounded=0;orthogonalLoop=1;jettySize=auto;html=1;exitX=0;exitY=0.5;exitDx=0;exitDy=0;entryX=0;entryY=0.5;entryDx=0;entryDy=0;" edge="1" parent="1" source="bwvaxVh_Ehk-p6oxeLNN-1" target="bwvaxVh_Ehk-p6oxeLNN-106">
          <mxGeometry relative="1" as="geometry" />
        </mxCell>
        <mxCell id="bwvaxVh_Ehk-p6oxeLNN-115" style="edgeStyle=orthogonalEdgeStyle;rounded=0;orthogonalLoop=1;jettySize=auto;html=1;exitX=0;exitY=0.5;exitDx=0;exitDy=0;entryX=0;entryY=0.5;entryDx=0;entryDy=0;" edge="1" parent="1" source="bwvaxVh_Ehk-p6oxeLNN-1" target="bwvaxVh_Ehk-p6oxeLNN-108">
          <mxGeometry relative="1" as="geometry" />
        </mxCell>
        <mxCell id="bwvaxVh_Ehk-p6oxeLNN-1" value="Pengguna" style="rounded=0;whiteSpace=wrap;html=1;" vertex="1" parent="1">
          <mxGeometry x="-20" y="650" width="120" height="60" as="geometry" />
        </mxCell>
        <mxCell id="bwvaxVh_Ehk-p6oxeLNN-2" value="I1" style="html=1;dashed=0;whiteSpace=wrap;shape=mxgraph.dfd.dataStoreID;align=left;spacingLeft=3;points=[[0,0],[0.5,0],[1,0],[0,0.5],[1,0.5],[0,1],[0.5,1],[1,1]];" vertex="1" parent="1">
          <mxGeometry x="272.5" y="260" width="127.5" height="50" as="geometry" />
        </mxCell>
        <mxCell id="bwvaxVh_Ehk-p6oxeLNN-19" style="edgeStyle=orthogonalEdgeStyle;rounded=0;orthogonalLoop=1;jettySize=auto;html=1;exitX=1;exitY=0.25;exitDx=0;exitDy=0;entryX=0;entryY=0.25;entryDx=0;entryDy=0;" edge="1" parent="1" source="bwvaxVh_Ehk-p6oxeLNN-7" target="bwvaxVh_Ehk-p6oxeLNN-12">
          <mxGeometry relative="1" as="geometry" />
        </mxCell>
        <mxCell id="bwvaxVh_Ehk-p6oxeLNN-7" value="1.0" style="swimlane;childLayout=stackLayout;horizontal=1;startSize=50;horizontalStack=0;rounded=1;fontSize=14;fontStyle=0;strokeWidth=2;resizeParent=0;resizeLast=1;shadow=0;dashed=0;align=center;arcSize=4;whiteSpace=wrap;html=1;" vertex="1" parent="1">
          <mxGeometry x="240" y="80" width="165" height="120" as="geometry" />
        </mxCell>
        <mxCell id="bwvaxVh_Ehk-p6oxeLNN-9" value="Menampilkan Table Warna" style="text;html=1;align=center;verticalAlign=middle;resizable=0;points=[];autosize=1;strokeColor=none;fillColor=none;" vertex="1" parent="bwvaxVh_Ehk-p6oxeLNN-7">
          <mxGeometry y="50" width="165" height="70" as="geometry" />
        </mxCell>
        <mxCell id="bwvaxVh_Ehk-p6oxeLNN-20" style="edgeStyle=orthogonalEdgeStyle;rounded=0;orthogonalLoop=1;jettySize=auto;html=1;exitX=1;exitY=0.25;exitDx=0;exitDy=0;" edge="1" parent="1" source="bwvaxVh_Ehk-p6oxeLNN-12">
          <mxGeometry relative="1" as="geometry">
            <mxPoint x="680" y="110" as="targetPoint" />
          </mxGeometry>
        </mxCell>
        <mxCell id="bwvaxVh_Ehk-p6oxeLNN-12" value="1.1" style="swimlane;childLayout=stackLayout;horizontal=1;startSize=50;horizontalStack=0;rounded=1;fontSize=14;fontStyle=0;strokeWidth=2;resizeParent=0;resizeLast=1;shadow=0;dashed=0;align=center;arcSize=4;whiteSpace=wrap;html=1;" vertex="1" parent="1">
          <mxGeometry x="470" y="80" width="165" height="120" as="geometry" />
        </mxCell>
        <mxCell id="bwvaxVh_Ehk-p6oxeLNN-13" value="Melakukan Proses Grayscale" style="text;html=1;align=center;verticalAlign=middle;resizable=0;points=[];autosize=1;strokeColor=none;fillColor=none;" vertex="1" parent="bwvaxVh_Ehk-p6oxeLNN-12">
          <mxGeometry y="50" width="165" height="70" as="geometry" />
        </mxCell>
        <mxCell id="bwvaxVh_Ehk-p6oxeLNN-15" value="1.2" style="swimlane;childLayout=stackLayout;horizontal=1;startSize=50;horizontalStack=0;rounded=1;fontSize=14;fontStyle=0;strokeWidth=2;resizeParent=0;resizeLast=1;shadow=0;dashed=0;align=center;arcSize=4;whiteSpace=wrap;html=1;" vertex="1" parent="1">
          <mxGeometry x="685" y="80" width="165" height="120" as="geometry" />
        </mxCell>
        <mxCell id="bwvaxVh_Ehk-p6oxeLNN-16" value="Unggah Gambar" style="text;html=1;align=center;verticalAlign=middle;resizable=0;points=[];autosize=1;strokeColor=none;fillColor=none;" vertex="1" parent="bwvaxVh_Ehk-p6oxeLNN-15">
          <mxGeometry y="50" width="165" height="70" as="geometry" />
        </mxCell>
        <mxCell id="bwvaxVh_Ehk-p6oxeLNN-18" value="Nilai RGB" style="text;html=1;align=center;verticalAlign=middle;whiteSpace=wrap;rounded=0;" vertex="1" parent="1">
          <mxGeometry x="310" y="260" width="80" height="50" as="geometry" />
        </mxCell>
        <mxCell id="bwvaxVh_Ehk-p6oxeLNN-32" style="edgeStyle=orthogonalEdgeStyle;rounded=0;orthogonalLoop=1;jettySize=auto;html=1;exitX=1;exitY=0.25;exitDx=0;exitDy=0;entryX=0;entryY=0.25;entryDx=0;entryDy=0;" edge="1" parent="1" source="bwvaxVh_Ehk-p6oxeLNN-21" target="bwvaxVh_Ehk-p6oxeLNN-23">
          <mxGeometry relative="1" as="geometry">
            <mxPoint x="470" y="370" as="targetPoint" />
          </mxGeometry>
        </mxCell>
        <mxCell id="bwvaxVh_Ehk-p6oxeLNN-21" value="2.0" style="swimlane;childLayout=stackLayout;horizontal=1;startSize=50;horizontalStack=0;rounded=1;fontSize=14;fontStyle=0;strokeWidth=2;resizeParent=0;resizeLast=1;shadow=0;dashed=0;align=center;arcSize=4;whiteSpace=wrap;html=1;" vertex="1" parent="1">
          <mxGeometry x="267.5" y="340" width="168" height="120" as="geometry" />
        </mxCell>
        <mxCell id="bwvaxVh_Ehk-p6oxeLNN-22" value="Menampilkan Table Grayscale" style="text;html=1;align=center;verticalAlign=middle;resizable=0;points=[];autosize=1;strokeColor=none;fillColor=none;" vertex="1" parent="bwvaxVh_Ehk-p6oxeLNN-21">
          <mxGeometry y="50" width="168" height="70" as="geometry" />
        </mxCell>
        <mxCell id="bwvaxVh_Ehk-p6oxeLNN-33" style="edgeStyle=orthogonalEdgeStyle;rounded=0;orthogonalLoop=1;jettySize=auto;html=1;exitX=1;exitY=0.25;exitDx=0;exitDy=0;" edge="1" parent="1" source="bwvaxVh_Ehk-p6oxeLNN-23">
          <mxGeometry relative="1" as="geometry">
            <mxPoint x="690" y="370" as="targetPoint" />
          </mxGeometry>
        </mxCell>
        <mxCell id="bwvaxVh_Ehk-p6oxeLNN-23" value="2.1" style="swimlane;childLayout=stackLayout;horizontal=1;startSize=50;horizontalStack=0;rounded=1;fontSize=14;fontStyle=0;strokeWidth=2;resizeParent=0;resizeLast=1;shadow=0;dashed=0;align=center;arcSize=4;whiteSpace=wrap;html=1;" vertex="1" parent="1">
          <mxGeometry x="477.5" y="340" width="165" height="120" as="geometry" />
        </mxCell>
        <mxCell id="bwvaxVh_Ehk-p6oxeLNN-24" value="Melakukan Proses Invert" style="text;html=1;align=center;verticalAlign=middle;resizable=0;points=[];autosize=1;strokeColor=none;fillColor=none;" vertex="1" parent="bwvaxVh_Ehk-p6oxeLNN-23">
          <mxGeometry y="50" width="165" height="70" as="geometry" />
        </mxCell>
        <mxCell id="bwvaxVh_Ehk-p6oxeLNN-25" value="2.2" style="swimlane;childLayout=stackLayout;horizontal=1;startSize=50;horizontalStack=0;rounded=1;fontSize=14;fontStyle=0;strokeWidth=2;resizeParent=0;resizeLast=1;shadow=0;dashed=0;align=center;arcSize=4;whiteSpace=wrap;html=1;" vertex="1" parent="1">
          <mxGeometry x="692.5" y="340" width="165" height="120" as="geometry" />
        </mxCell>
        <mxCell id="bwvaxVh_Ehk-p6oxeLNN-26" value="Unggah Gambar" style="text;html=1;align=center;verticalAlign=middle;resizable=0;points=[];autosize=1;strokeColor=none;fillColor=none;" vertex="1" parent="bwvaxVh_Ehk-p6oxeLNN-25">
          <mxGeometry y="50" width="165" height="70" as="geometry" />
        </mxCell>
        <mxCell id="bwvaxVh_Ehk-p6oxeLNN-29" value="I2" style="html=1;dashed=0;whiteSpace=wrap;shape=mxgraph.dfd.dataStoreID;align=left;spacingLeft=3;points=[[0,0],[0.5,0],[1,0],[0,0.5],[1,0.5],[0,1],[0.5,1],[1,1]];" vertex="1" parent="1">
          <mxGeometry x="272.5" y="510" width="127.5" height="50" as="geometry" />
        </mxCell>
        <mxCell id="bwvaxVh_Ehk-p6oxeLNN-30" value="Nilai Grayscale" style="text;html=1;align=center;verticalAlign=middle;whiteSpace=wrap;rounded=0;" vertex="1" parent="1">
          <mxGeometry x="310" y="510" width="80" height="50" as="geometry" />
        </mxCell>
        <mxCell id="bwvaxVh_Ehk-p6oxeLNN-31" style="edgeStyle=orthogonalEdgeStyle;rounded=0;orthogonalLoop=1;jettySize=auto;html=1;exitX=1;exitY=0.5;exitDx=0;exitDy=0;entryX=0.003;entryY=0.714;entryDx=0;entryDy=0;entryPerimeter=0;jumpStyle=arc;" edge="1" parent="1" source="bwvaxVh_Ehk-p6oxeLNN-1" target="bwvaxVh_Ehk-p6oxeLNN-22">
          <mxGeometry relative="1" as="geometry" />
        </mxCell>
        <mxCell id="bwvaxVh_Ehk-p6oxeLNN-34" style="edgeStyle=orthogonalEdgeStyle;rounded=0;orthogonalLoop=1;jettySize=auto;html=1;exitX=0.5;exitY=0;exitDx=0;exitDy=0;entryX=0.467;entryY=1.014;entryDx=0;entryDy=0;entryPerimeter=0;startArrow=classic;startFill=1;" edge="1" parent="1" source="bwvaxVh_Ehk-p6oxeLNN-18" target="bwvaxVh_Ehk-p6oxeLNN-9">
          <mxGeometry relative="1" as="geometry" />
        </mxCell>
        <mxCell id="bwvaxVh_Ehk-p6oxeLNN-36" style="edgeStyle=orthogonalEdgeStyle;rounded=0;orthogonalLoop=1;jettySize=auto;html=1;exitX=0.5;exitY=0;exitDx=0;exitDy=0;entryX=0.5;entryY=0.986;entryDx=0;entryDy=0;entryPerimeter=0;startArrow=classic;startFill=1;" edge="1" parent="1" source="bwvaxVh_Ehk-p6oxeLNN-30" target="bwvaxVh_Ehk-p6oxeLNN-22">
          <mxGeometry relative="1" as="geometry" />
        </mxCell>
        <mxCell id="bwvaxVh_Ehk-p6oxeLNN-38" style="edgeStyle=orthogonalEdgeStyle;rounded=0;orthogonalLoop=1;jettySize=auto;html=1;exitX=1;exitY=0.25;exitDx=0;exitDy=0;entryX=0;entryY=0.25;entryDx=0;entryDy=0;" edge="1" parent="1" source="bwvaxVh_Ehk-p6oxeLNN-39" target="bwvaxVh_Ehk-p6oxeLNN-42">
          <mxGeometry relative="1" as="geometry">
            <mxPoint x="470" y="620" as="targetPoint" />
          </mxGeometry>
        </mxCell>
        <mxCell id="bwvaxVh_Ehk-p6oxeLNN-39" value="3.0" style="swimlane;childLayout=stackLayout;horizontal=1;startSize=50;horizontalStack=0;rounded=1;fontSize=14;fontStyle=0;strokeWidth=2;resizeParent=0;resizeLast=1;shadow=0;dashed=0;align=center;arcSize=4;whiteSpace=wrap;html=1;" vertex="1" parent="1">
          <mxGeometry x="267.5" y="590" width="168" height="120" as="geometry" />
        </mxCell>
        <mxCell id="bwvaxVh_Ehk-p6oxeLNN-40" value="Menampilkan Table Grayscale" style="text;html=1;align=center;verticalAlign=middle;resizable=0;points=[];autosize=1;strokeColor=none;fillColor=none;" vertex="1" parent="bwvaxVh_Ehk-p6oxeLNN-39">
          <mxGeometry y="50" width="168" height="70" as="geometry" />
        </mxCell>
        <mxCell id="bwvaxVh_Ehk-p6oxeLNN-41" style="edgeStyle=orthogonalEdgeStyle;rounded=0;orthogonalLoop=1;jettySize=auto;html=1;exitX=1;exitY=0.25;exitDx=0;exitDy=0;" edge="1" parent="1" source="bwvaxVh_Ehk-p6oxeLNN-42">
          <mxGeometry relative="1" as="geometry">
            <mxPoint x="690" y="620" as="targetPoint" />
          </mxGeometry>
        </mxCell>
        <mxCell id="bwvaxVh_Ehk-p6oxeLNN-42" value="3.1" style="swimlane;childLayout=stackLayout;horizontal=1;startSize=50;horizontalStack=0;rounded=1;fontSize=14;fontStyle=0;strokeWidth=2;resizeParent=0;resizeLast=1;shadow=0;dashed=0;align=center;arcSize=4;whiteSpace=wrap;html=1;" vertex="1" parent="1">
          <mxGeometry x="477.5" y="590" width="168" height="120" as="geometry" />
        </mxCell>
        <mxCell id="bwvaxVh_Ehk-p6oxeLNN-43" value="Melakukan Proses Brightness" style="text;html=1;align=center;verticalAlign=middle;resizable=0;points=[];autosize=1;strokeColor=none;fillColor=none;" vertex="1" parent="bwvaxVh_Ehk-p6oxeLNN-42">
          <mxGeometry y="50" width="168" height="70" as="geometry" />
        </mxCell>
        <mxCell id="bwvaxVh_Ehk-p6oxeLNN-44" value="3.2" style="swimlane;childLayout=stackLayout;horizontal=1;startSize=50;horizontalStack=0;rounded=1;fontSize=14;fontStyle=0;strokeWidth=2;resizeParent=0;resizeLast=1;shadow=0;dashed=0;align=center;arcSize=4;whiteSpace=wrap;html=1;" vertex="1" parent="1">
          <mxGeometry x="692.5" y="590" width="165" height="120" as="geometry" />
        </mxCell>
        <mxCell id="bwvaxVh_Ehk-p6oxeLNN-45" value="Unggah Gambar" style="text;html=1;align=center;verticalAlign=middle;resizable=0;points=[];autosize=1;strokeColor=none;fillColor=none;" vertex="1" parent="bwvaxVh_Ehk-p6oxeLNN-44">
          <mxGeometry y="50" width="165" height="70" as="geometry" />
        </mxCell>
        <mxCell id="bwvaxVh_Ehk-p6oxeLNN-46" value="I3" style="html=1;dashed=0;whiteSpace=wrap;shape=mxgraph.dfd.dataStoreID;align=left;spacingLeft=3;points=[[0,0],[0.5,0],[1,0],[0,0.5],[1,0.5],[0,1],[0.5,1],[1,1]];" vertex="1" parent="1">
          <mxGeometry x="272.5" y="760" width="127.5" height="50" as="geometry" />
        </mxCell>
        <mxCell id="bwvaxVh_Ehk-p6oxeLNN-47" value="Nilai Grayscale" style="text;html=1;align=center;verticalAlign=middle;whiteSpace=wrap;rounded=0;" vertex="1" parent="1">
          <mxGeometry x="310" y="760" width="80" height="50" as="geometry" />
        </mxCell>
        <mxCell id="bwvaxVh_Ehk-p6oxeLNN-51" value="I4" style="html=1;dashed=0;whiteSpace=wrap;shape=mxgraph.dfd.dataStoreID;align=left;spacingLeft=3;points=[[0,0],[0.5,0],[1,0],[0,0.5],[1,0.5],[0,1],[0.5,1],[1,1]];" vertex="1" parent="1">
          <mxGeometry x="272.5" y="840" width="127.5" height="50" as="geometry" />
        </mxCell>
        <mxCell id="bwvaxVh_Ehk-p6oxeLNN-53" value="Nilai Konstanta" style="text;html=1;align=center;verticalAlign=middle;whiteSpace=wrap;rounded=0;" vertex="1" parent="1">
          <mxGeometry x="310" y="840" width="80" height="50" as="geometry" />
        </mxCell>
        <mxCell id="bwvaxVh_Ehk-p6oxeLNN-55" style="edgeStyle=orthogonalEdgeStyle;rounded=0;orthogonalLoop=1;jettySize=auto;html=1;exitX=1;exitY=0.25;exitDx=0;exitDy=0;entryX=0;entryY=0.25;entryDx=0;entryDy=0;" edge="1" parent="1" source="bwvaxVh_Ehk-p6oxeLNN-56" target="bwvaxVh_Ehk-p6oxeLNN-59">
          <mxGeometry relative="1" as="geometry">
            <mxPoint x="470" y="960" as="targetPoint" />
          </mxGeometry>
        </mxCell>
        <mxCell id="bwvaxVh_Ehk-p6oxeLNN-56" value="4.0" style="swimlane;childLayout=stackLayout;horizontal=1;startSize=50;horizontalStack=0;rounded=1;fontSize=14;fontStyle=0;strokeWidth=2;resizeParent=0;resizeLast=1;shadow=0;dashed=0;align=center;arcSize=4;whiteSpace=wrap;html=1;" vertex="1" parent="1">
          <mxGeometry x="267.5" y="930" width="168" height="120" as="geometry" />
        </mxCell>
        <mxCell id="bwvaxVh_Ehk-p6oxeLNN-57" value="Menampilkan Table Grayscale" style="text;html=1;align=center;verticalAlign=middle;resizable=0;points=[];autosize=1;strokeColor=none;fillColor=none;" vertex="1" parent="bwvaxVh_Ehk-p6oxeLNN-56">
          <mxGeometry y="50" width="168" height="70" as="geometry" />
        </mxCell>
        <mxCell id="bwvaxVh_Ehk-p6oxeLNN-58" style="edgeStyle=orthogonalEdgeStyle;rounded=0;orthogonalLoop=1;jettySize=auto;html=1;exitX=1;exitY=0.25;exitDx=0;exitDy=0;" edge="1" parent="1" source="bwvaxVh_Ehk-p6oxeLNN-59">
          <mxGeometry relative="1" as="geometry">
            <mxPoint x="690" y="960" as="targetPoint" />
          </mxGeometry>
        </mxCell>
        <mxCell id="bwvaxVh_Ehk-p6oxeLNN-59" value="4.1" style="swimlane;childLayout=stackLayout;horizontal=1;startSize=50;horizontalStack=0;rounded=1;fontSize=14;fontStyle=0;strokeWidth=2;resizeParent=0;resizeLast=1;shadow=0;dashed=0;align=center;arcSize=4;whiteSpace=wrap;html=1;" vertex="1" parent="1">
          <mxGeometry x="477.5" y="930" width="168" height="120" as="geometry" />
        </mxCell>
        <mxCell id="bwvaxVh_Ehk-p6oxeLNN-60" value="Melakukan Proses Threshold" style="text;html=1;align=center;verticalAlign=middle;resizable=0;points=[];autosize=1;strokeColor=none;fillColor=none;" vertex="1" parent="bwvaxVh_Ehk-p6oxeLNN-59">
          <mxGeometry y="50" width="168" height="70" as="geometry" />
        </mxCell>
        <mxCell id="bwvaxVh_Ehk-p6oxeLNN-61" value="4.2" style="swimlane;childLayout=stackLayout;horizontal=1;startSize=50;horizontalStack=0;rounded=1;fontSize=14;fontStyle=0;strokeWidth=2;resizeParent=0;resizeLast=1;shadow=0;dashed=0;align=center;arcSize=4;whiteSpace=wrap;html=1;" vertex="1" parent="1">
          <mxGeometry x="692.5" y="930" width="165" height="120" as="geometry" />
        </mxCell>
        <mxCell id="bwvaxVh_Ehk-p6oxeLNN-62" value="Unggah Gambar" style="text;html=1;align=center;verticalAlign=middle;resizable=0;points=[];autosize=1;strokeColor=none;fillColor=none;" vertex="1" parent="bwvaxVh_Ehk-p6oxeLNN-61">
          <mxGeometry y="50" width="165" height="70" as="geometry" />
        </mxCell>
        <mxCell id="bwvaxVh_Ehk-p6oxeLNN-63" value="I5" style="html=1;dashed=0;whiteSpace=wrap;shape=mxgraph.dfd.dataStoreID;align=left;spacingLeft=3;points=[[0,0],[0.5,0],[1,0],[0,0.5],[1,0.5],[0,1],[0.5,1],[1,1]];" vertex="1" parent="1">
          <mxGeometry x="272.5" y="1100" width="127.5" height="50" as="geometry" />
        </mxCell>
        <mxCell id="bwvaxVh_Ehk-p6oxeLNN-64" value="Nilai Grayscale" style="text;html=1;align=center;verticalAlign=middle;whiteSpace=wrap;rounded=0;" vertex="1" parent="1">
          <mxGeometry x="310" y="1100" width="80" height="50" as="geometry" />
        </mxCell>
        <mxCell id="bwvaxVh_Ehk-p6oxeLNN-65" value="I6" style="html=1;dashed=0;whiteSpace=wrap;shape=mxgraph.dfd.dataStoreID;align=left;spacingLeft=3;points=[[0,0],[0.5,0],[1,0],[0,0.5],[1,0.5],[0,1],[0.5,1],[1,1]];" vertex="1" parent="1">
          <mxGeometry x="272.5" y="1180" width="127.5" height="50" as="geometry" />
        </mxCell>
        <mxCell id="bwvaxVh_Ehk-p6oxeLNN-66" value="Nilai Konstanta" style="text;html=1;align=center;verticalAlign=middle;whiteSpace=wrap;rounded=0;" vertex="1" parent="1">
          <mxGeometry x="310" y="1180" width="80" height="50" as="geometry" />
        </mxCell>
        <mxCell id="bwvaxVh_Ehk-p6oxeLNN-67" style="edgeStyle=orthogonalEdgeStyle;rounded=0;orthogonalLoop=1;jettySize=auto;html=1;exitX=0.25;exitY=1;exitDx=0;exitDy=0;entryX=-0.003;entryY=0.314;entryDx=0;entryDy=0;entryPerimeter=0;" edge="1" parent="1" source="bwvaxVh_Ehk-p6oxeLNN-1" target="bwvaxVh_Ehk-p6oxeLNN-57">
          <mxGeometry relative="1" as="geometry" />
        </mxCell>
        <mxCell id="bwvaxVh_Ehk-p6oxeLNN-69" style="edgeStyle=orthogonalEdgeStyle;rounded=0;orthogonalLoop=1;jettySize=auto;html=1;exitX=0.5;exitY=0;exitDx=0;exitDy=0;entryX=0.489;entryY=1.054;entryDx=0;entryDy=0;entryPerimeter=0;startArrow=classic;startFill=1;" edge="1" parent="1" source="bwvaxVh_Ehk-p6oxeLNN-47" target="bwvaxVh_Ehk-p6oxeLNN-40">
          <mxGeometry relative="1" as="geometry" />
        </mxCell>
        <mxCell id="bwvaxVh_Ehk-p6oxeLNN-71" style="edgeStyle=orthogonalEdgeStyle;rounded=0;orthogonalLoop=1;jettySize=auto;html=1;exitX=0.5;exitY=1;exitDx=0;exitDy=0;entryX=0.508;entryY=-0.077;entryDx=0;entryDy=0;entryPerimeter=0;startArrow=classic;startFill=1;" edge="1" parent="1" source="bwvaxVh_Ehk-p6oxeLNN-56" target="bwvaxVh_Ehk-p6oxeLNN-64">
          <mxGeometry relative="1" as="geometry" />
        </mxCell>
        <mxCell id="bwvaxVh_Ehk-p6oxeLNN-72" style="edgeStyle=orthogonalEdgeStyle;rounded=0;orthogonalLoop=1;jettySize=auto;html=1;exitX=1;exitY=0.5;exitDx=0;exitDy=0;entryX=0.938;entryY=1.019;entryDx=0;entryDy=0;entryPerimeter=0;startArrow=classic;startFill=1;" edge="1" parent="1" source="bwvaxVh_Ehk-p6oxeLNN-51" target="bwvaxVh_Ehk-p6oxeLNN-40">
          <mxGeometry relative="1" as="geometry" />
        </mxCell>
        <mxCell id="bwvaxVh_Ehk-p6oxeLNN-73" style="edgeStyle=orthogonalEdgeStyle;rounded=0;orthogonalLoop=1;jettySize=auto;html=1;exitX=1;exitY=0.5;exitDx=0;exitDy=0;entryX=0.951;entryY=1.009;entryDx=0;entryDy=0;entryPerimeter=0;startArrow=classic;startFill=1;" edge="1" parent="1" source="bwvaxVh_Ehk-p6oxeLNN-66" target="bwvaxVh_Ehk-p6oxeLNN-57">
          <mxGeometry relative="1" as="geometry" />
        </mxCell>
        <mxCell id="bwvaxVh_Ehk-p6oxeLNN-74" style="edgeStyle=orthogonalEdgeStyle;rounded=0;orthogonalLoop=1;jettySize=auto;html=1;exitX=1;exitY=0.25;exitDx=0;exitDy=0;entryX=0;entryY=0.25;entryDx=0;entryDy=0;" edge="1" parent="1" source="bwvaxVh_Ehk-p6oxeLNN-75" target="bwvaxVh_Ehk-p6oxeLNN-78">
          <mxGeometry relative="1" as="geometry">
            <mxPoint x="475" y="1280" as="targetPoint" />
          </mxGeometry>
        </mxCell>
        <mxCell id="bwvaxVh_Ehk-p6oxeLNN-75" value="5.0" style="swimlane;childLayout=stackLayout;horizontal=1;startSize=50;horizontalStack=0;rounded=1;fontSize=14;fontStyle=0;strokeWidth=2;resizeParent=0;resizeLast=1;shadow=0;dashed=0;align=center;arcSize=4;whiteSpace=wrap;html=1;" vertex="1" parent="1">
          <mxGeometry x="272.5" y="1250" width="168" height="120" as="geometry" />
        </mxCell>
        <mxCell id="bwvaxVh_Ehk-p6oxeLNN-76" value="Menampilkan Table Grayscale" style="text;html=1;align=center;verticalAlign=middle;resizable=0;points=[];autosize=1;strokeColor=none;fillColor=none;" vertex="1" parent="bwvaxVh_Ehk-p6oxeLNN-75">
          <mxGeometry y="50" width="168" height="70" as="geometry" />
        </mxCell>
        <mxCell id="bwvaxVh_Ehk-p6oxeLNN-77" style="edgeStyle=orthogonalEdgeStyle;rounded=0;orthogonalLoop=1;jettySize=auto;html=1;exitX=1;exitY=0.25;exitDx=0;exitDy=0;" edge="1" parent="1" source="bwvaxVh_Ehk-p6oxeLNN-78">
          <mxGeometry relative="1" as="geometry">
            <mxPoint x="695" y="1280" as="targetPoint" />
          </mxGeometry>
        </mxCell>
        <mxCell id="bwvaxVh_Ehk-p6oxeLNN-78" value="5.1" style="swimlane;childLayout=stackLayout;horizontal=1;startSize=50;horizontalStack=0;rounded=1;fontSize=14;fontStyle=0;strokeWidth=2;resizeParent=0;resizeLast=1;shadow=0;dashed=0;align=center;arcSize=4;whiteSpace=wrap;html=1;" vertex="1" parent="1">
          <mxGeometry x="482.5" y="1250" width="168" height="120" as="geometry" />
        </mxCell>
        <mxCell id="bwvaxVh_Ehk-p6oxeLNN-79" value="Melakukan Proses&amp;nbsp;&lt;div&gt;Image Blending&lt;/div&gt;" style="text;html=1;align=center;verticalAlign=middle;resizable=0;points=[];autosize=1;strokeColor=none;fillColor=none;" vertex="1" parent="bwvaxVh_Ehk-p6oxeLNN-78">
          <mxGeometry y="50" width="168" height="70" as="geometry" />
        </mxCell>
        <mxCell id="bwvaxVh_Ehk-p6oxeLNN-80" value="5.2" style="swimlane;childLayout=stackLayout;horizontal=1;startSize=50;horizontalStack=0;rounded=1;fontSize=14;fontStyle=0;strokeWidth=2;resizeParent=0;resizeLast=1;shadow=0;dashed=0;align=center;arcSize=4;whiteSpace=wrap;html=1;" vertex="1" parent="1">
          <mxGeometry x="697.5" y="1250" width="165" height="120" as="geometry" />
        </mxCell>
        <mxCell id="bwvaxVh_Ehk-p6oxeLNN-81" value="Unggah Gambar" style="text;html=1;align=center;verticalAlign=middle;resizable=0;points=[];autosize=1;strokeColor=none;fillColor=none;" vertex="1" parent="bwvaxVh_Ehk-p6oxeLNN-80">
          <mxGeometry y="50" width="165" height="70" as="geometry" />
        </mxCell>
        <mxCell id="bwvaxVh_Ehk-p6oxeLNN-82" value="I7" style="html=1;dashed=0;whiteSpace=wrap;shape=mxgraph.dfd.dataStoreID;align=left;spacingLeft=3;points=[[0,0],[0.5,0],[1,0],[0,0.5],[1,0.5],[0,1],[0.5,1],[1,1]];" vertex="1" parent="1">
          <mxGeometry x="277.5" y="1420" width="127.5" height="50" as="geometry" />
        </mxCell>
        <mxCell id="bwvaxVh_Ehk-p6oxeLNN-83" value="Nilai Grayscale" style="text;html=1;align=center;verticalAlign=middle;whiteSpace=wrap;rounded=0;" vertex="1" parent="1">
          <mxGeometry x="315" y="1420" width="80" height="50" as="geometry" />
        </mxCell>
        <mxCell id="bwvaxVh_Ehk-p6oxeLNN-84" value="I8" style="html=1;dashed=0;whiteSpace=wrap;shape=mxgraph.dfd.dataStoreID;align=left;spacingLeft=3;points=[[0,0],[0.5,0],[1,0],[0,0.5],[1,0.5],[0,1],[0.5,1],[1,1]];" vertex="1" parent="1">
          <mxGeometry x="277.5" y="1500" width="127.5" height="50" as="geometry" />
        </mxCell>
        <mxCell id="bwvaxVh_Ehk-p6oxeLNN-85" value="Nilai Threshold" style="text;html=1;align=center;verticalAlign=middle;whiteSpace=wrap;rounded=0;" vertex="1" parent="1">
          <mxGeometry x="315" y="1500" width="80" height="50" as="geometry" />
        </mxCell>
        <mxCell id="bwvaxVh_Ehk-p6oxeLNN-86" style="edgeStyle=orthogonalEdgeStyle;rounded=0;orthogonalLoop=1;jettySize=auto;html=1;exitX=0.5;exitY=1;exitDx=0;exitDy=0;entryX=-0.003;entryY=0.186;entryDx=0;entryDy=0;entryPerimeter=0;" edge="1" parent="1" source="bwvaxVh_Ehk-p6oxeLNN-1" target="bwvaxVh_Ehk-p6oxeLNN-76">
          <mxGeometry relative="1" as="geometry" />
        </mxCell>
        <mxCell id="bwvaxVh_Ehk-p6oxeLNN-87" style="edgeStyle=orthogonalEdgeStyle;rounded=0;orthogonalLoop=1;jettySize=auto;html=1;exitX=0.5;exitY=0;exitDx=0;exitDy=0;entryX=0.491;entryY=1.014;entryDx=0;entryDy=0;entryPerimeter=0;startArrow=classic;startFill=1;" edge="1" parent="1" source="bwvaxVh_Ehk-p6oxeLNN-83" target="bwvaxVh_Ehk-p6oxeLNN-76">
          <mxGeometry relative="1" as="geometry" />
        </mxCell>
        <mxCell id="bwvaxVh_Ehk-p6oxeLNN-88" style="edgeStyle=orthogonalEdgeStyle;rounded=0;orthogonalLoop=1;jettySize=auto;html=1;exitX=1;exitY=0.5;exitDx=0;exitDy=0;entryX=0.908;entryY=1.029;entryDx=0;entryDy=0;entryPerimeter=0;startArrow=classic;startFill=1;" edge="1" parent="1" source="bwvaxVh_Ehk-p6oxeLNN-84" target="bwvaxVh_Ehk-p6oxeLNN-76">
          <mxGeometry relative="1" as="geometry" />
        </mxCell>
        <mxCell id="bwvaxVh_Ehk-p6oxeLNN-110" style="edgeStyle=orthogonalEdgeStyle;rounded=0;orthogonalLoop=1;jettySize=auto;html=1;exitX=1;exitY=0.25;exitDx=0;exitDy=0;" edge="1" parent="1" source="bwvaxVh_Ehk-p6oxeLNN-100">
          <mxGeometry relative="1" as="geometry">
            <mxPoint x="480" y="1600.3333333333335" as="targetPoint" />
          </mxGeometry>
        </mxCell>
        <mxCell id="bwvaxVh_Ehk-p6oxeLNN-100" value="6.0" style="swimlane;childLayout=stackLayout;horizontal=1;startSize=50;horizontalStack=0;rounded=1;fontSize=14;fontStyle=0;strokeWidth=2;resizeParent=0;resizeLast=1;shadow=0;dashed=0;align=center;arcSize=4;whiteSpace=wrap;html=1;" vertex="1" parent="1">
          <mxGeometry x="272.5" y="1570" width="168" height="120" as="geometry" />
        </mxCell>
        <mxCell id="bwvaxVh_Ehk-p6oxeLNN-101" value="Menampilkan Table Grayscale" style="text;html=1;align=center;verticalAlign=middle;resizable=0;points=[];autosize=1;strokeColor=none;fillColor=none;" vertex="1" parent="bwvaxVh_Ehk-p6oxeLNN-100">
          <mxGeometry y="50" width="168" height="70" as="geometry" />
        </mxCell>
        <mxCell id="bwvaxVh_Ehk-p6oxeLNN-111" style="edgeStyle=orthogonalEdgeStyle;rounded=0;orthogonalLoop=1;jettySize=auto;html=1;exitX=1;exitY=0.25;exitDx=0;exitDy=0;entryX=0;entryY=0.25;entryDx=0;entryDy=0;" edge="1" parent="1" source="bwvaxVh_Ehk-p6oxeLNN-102" target="bwvaxVh_Ehk-p6oxeLNN-104">
          <mxGeometry relative="1" as="geometry" />
        </mxCell>
        <mxCell id="bwvaxVh_Ehk-p6oxeLNN-102" value="6.1" style="swimlane;childLayout=stackLayout;horizontal=1;startSize=50;horizontalStack=0;rounded=1;fontSize=14;fontStyle=0;strokeWidth=2;resizeParent=0;resizeLast=1;shadow=0;dashed=0;align=center;arcSize=4;whiteSpace=wrap;html=1;" vertex="1" parent="1">
          <mxGeometry x="482.5" y="1570" width="168" height="120" as="geometry" />
        </mxCell>
        <mxCell id="bwvaxVh_Ehk-p6oxeLNN-103" value="Melakukan Proses&amp;nbsp;&lt;div&gt;Image Substraction&lt;/div&gt;" style="text;html=1;align=center;verticalAlign=middle;resizable=0;points=[];autosize=1;strokeColor=none;fillColor=none;" vertex="1" parent="bwvaxVh_Ehk-p6oxeLNN-102">
          <mxGeometry y="50" width="168" height="70" as="geometry" />
        </mxCell>
        <mxCell id="bwvaxVh_Ehk-p6oxeLNN-104" value="6.2" style="swimlane;childLayout=stackLayout;horizontal=1;startSize=50;horizontalStack=0;rounded=1;fontSize=14;fontStyle=0;strokeWidth=2;resizeParent=0;resizeLast=1;shadow=0;dashed=0;align=center;arcSize=4;whiteSpace=wrap;html=1;" vertex="1" parent="1">
          <mxGeometry x="697.5" y="1570" width="165" height="120" as="geometry" />
        </mxCell>
        <mxCell id="bwvaxVh_Ehk-p6oxeLNN-105" value="Unggah Gambar" style="text;html=1;align=center;verticalAlign=middle;resizable=0;points=[];autosize=1;strokeColor=none;fillColor=none;" vertex="1" parent="bwvaxVh_Ehk-p6oxeLNN-104">
          <mxGeometry y="50" width="165" height="70" as="geometry" />
        </mxCell>
        <mxCell id="bwvaxVh_Ehk-p6oxeLNN-106" value="I9" style="html=1;dashed=0;whiteSpace=wrap;shape=mxgraph.dfd.dataStoreID;align=left;spacingLeft=3;points=[[0,0],[0.5,0],[1,0],[0,0.5],[1,0.5],[0,1],[0.5,1],[1,1]];" vertex="1" parent="1">
          <mxGeometry x="277.5" y="1740" width="127.5" height="50" as="geometry" />
        </mxCell>
        <mxCell id="bwvaxVh_Ehk-p6oxeLNN-107" value="Nilai Grayscale" style="text;html=1;align=center;verticalAlign=middle;whiteSpace=wrap;rounded=0;" vertex="1" parent="1">
          <mxGeometry x="315" y="1740" width="80" height="50" as="geometry" />
        </mxCell>
        <mxCell id="bwvaxVh_Ehk-p6oxeLNN-108" value="I10" style="html=1;dashed=0;whiteSpace=wrap;shape=mxgraph.dfd.dataStoreID;align=left;spacingLeft=3;points=[[0,0],[0.5,0],[1,0],[0,0.5],[1,0.5],[0,1],[0.5,1],[1,1]];" vertex="1" parent="1">
          <mxGeometry x="277.5" y="1820" width="127.5" height="50" as="geometry" />
        </mxCell>
        <mxCell id="bwvaxVh_Ehk-p6oxeLNN-109" value="Nilai Threshold" style="text;html=1;align=center;verticalAlign=middle;whiteSpace=wrap;rounded=0;" vertex="1" parent="1">
          <mxGeometry x="315" y="1820" width="80" height="50" as="geometry" />
        </mxCell>
        <mxCell id="bwvaxVh_Ehk-p6oxeLNN-113" style="edgeStyle=orthogonalEdgeStyle;rounded=0;orthogonalLoop=1;jettySize=auto;html=1;exitX=0;exitY=0.5;exitDx=0;exitDy=0;entryX=-0.003;entryY=0.8;entryDx=0;entryDy=0;entryPerimeter=0;" edge="1" parent="1" source="bwvaxVh_Ehk-p6oxeLNN-1" target="bwvaxVh_Ehk-p6oxeLNN-101">
          <mxGeometry relative="1" as="geometry" />
        </mxCell>
        <mxCell id="bwvaxVh_Ehk-p6oxeLNN-117" style="edgeStyle=orthogonalEdgeStyle;rounded=0;orthogonalLoop=1;jettySize=auto;html=1;exitX=0.5;exitY=0;exitDx=0;exitDy=0;entryX=0.488;entryY=1.046;entryDx=0;entryDy=0;entryPerimeter=0;startArrow=classic;startFill=1;" edge="1" parent="1" source="bwvaxVh_Ehk-p6oxeLNN-107" target="bwvaxVh_Ehk-p6oxeLNN-101">
          <mxGeometry relative="1" as="geometry" />
        </mxCell>
        <mxCell id="bwvaxVh_Ehk-p6oxeLNN-118" style="edgeStyle=orthogonalEdgeStyle;rounded=0;orthogonalLoop=1;jettySize=auto;html=1;exitX=1;exitY=0.5;exitDx=0;exitDy=0;entryX=0.868;entryY=1.011;entryDx=0;entryDy=0;entryPerimeter=0;startArrow=classic;startFill=1;" edge="1" parent="1" source="bwvaxVh_Ehk-p6oxeLNN-109" target="bwvaxVh_Ehk-p6oxeLNN-101">
          <mxGeometry relative="1" as="geometry" />
        </mxCell>
      </root>
    </mxGraphModel>
  </diagram>
</mxfile>
